PathFileType	4	(X/Y/Z)	/Users/itak/Documents/Research/Walk-IL/dataset/trc/00147_00007.trc
DataRate	CameraRate	NumFrames	NumMarkers	Units	OrigDataRate	OrigDataStartFrame	OrigNumFrames
100.000000	100.000000	4	53	mm	100.000000	457	523
Frame#	Time	RPSI			LPSI			L3			STRN			T10			C7			CLAV			RBAK			LBAK			LSHO			LUPA			LAEL			LAOL			LWTS			LWPS			LFRA			LIFD			LHPS			LHTS			RSHO			RUPA			RAEL			RAOL			RWTS			RWPS			RFRA			RIFD			RHTS			RHPS			RBHD			LFHD			RFHD			LBHD			LHIP			RHIP			RASI			LASI			LKNE			LTHI			LANK			LTIP			LTOE			LMT1			LMT5			LHEE			RKNE			RTHI			RANK			RTIP			RTOE			RMT1			RMT5			RHEE			
		X1	Y1	Z1	X2	Y2	Z2	X3	Y3	Z3	X4	Y4	Z4	X5	Y5	Z5	X6	Y6	Z6	X7	Y7	Z7	X8	Y8	Z8	X9	Y9	Z9	X10	Y10	Z10	X11	Y11	Z11	X12	Y12	Z12	X13	Y13	Z13	X14	Y14	Z14	X15	Y15	Z15	X16	Y16	Z16	X17	Y17	Z17	X18	Y18	Z18	X19	Y19	Z19	X20	Y20	Z20	X21	Y21	Z21	X22	Y22	Z22	X23	Y23	Z23	X24	Y24	Z24	X25	Y25	Z25	X26	Y26	Z26	X27	Y27	Z27	X28	Y28	Z28	X29	Y29	Z29	X30	Y30	Z30	X31	Y31	Z31	X32	Y32	Z32	X33	Y33	Z33	X34	Y34	Z34	X35	Y35	Z35	X36	Y36	Z36	X37	Y37	Z37	X38	Y38	Z38	X39	Y39	Z39	X40	Y40	Z40	X41	Y41	Z41	X42	Y42	Z42	X43	Y43	Z43	X44	Y44	Z44	X45	Y45	Z45	X46	Y46	Z46	X47	Y47	Z47	X48	Y48	Z48	X49	Y49	Z49	X50	Y50	Z50	X51	Y51	Z51	X52	Y52	Z52	X53	Y53	Z53	

458	4.57	958.2691650390625	1122.179565429688	113.5176467895508	823.6773681640625	1124.821411132812	108.3240661621094	889.0986938476562	1154.934692382812	118.0695190429688	898.954833984375	1358.420288085938	-90.4271240234375	887.6889038085938	1302.525634765625	159.5398712158203	871.0421142578125	1597.110107421875	136.9093627929688	889.7313842773438	1491.453002929688	-49.5092887878418	957.8606567382812	1411.603393554688	189.8066101074219	769.71337890625	1573.14013671875	135.4723052978516	705.6414184570312	1560.929443359375	43.90646362304688	633.067626953125	1429.55029296875	58.53265762329102	608.5847778320312	1212.155883789062	37.55229187011719	664.08544921875	1195.566284179688	105.9286651611328	654.2854614257812	962.76904296875	-79.93443298339844	625.5610961914062	930.9320678710938	-2.10125994682312	603.9129638671875	1097.2880859375	12.87286376953125	672.1385498046875	771.4007568359375	-110.1711196899414	625.1323852539062	858.6992797851562	-37.69912338256836	643.2977294921875	875.9953002929688	-102.2114486694336	1053.921997070312	1583.379272460938	89.38447570800781	1116.941284179688	1510.57275390625	109.8358459472656	1140.587280273438	1216.082397460938	114.8707046508789	1043.349243164062	1213.04052734375	112.7104797363281	1145.534790039062	976.5274047851562	-35.91080856323242	1171.279296875	959.354736328125	41.54117584228516	1159.788818359375	1143.994384765625	90.84415435791016	1131.810180664062	779.67431640625	-61.01735305786133	1153.636474609375	867.3858032226562	-64.02158355712891	1178.70263671875	860.36572265625	3.932142496109009	955.76318359375	1752.84521484375	112.5890197753906	801.27978515625	1853.831420898438	-9.046120643615723	930.6128540039062	1864.94970703125	-23.73295974731445	824.0460205078125	1743.156616210938	136.6558074951172	720.365966796875	1040.21044921875	9.111789703369141	1081.863403320312	1027.036743164062	-10.58107566833496	1033.380737304688	1100.871826171875	-91.74449157714844	766.806396484375	1102.150634765625	-96.43070983886719	757.8705444335938	532.9594116210938	-16.2842845916748	726.8056640625	680.4506225585938	4.279678344726562	769.509521484375	35.17272186279297	112.316291809082	732.0288696289062	289.1192932128906	91.02538299560547	836.7391357421875	34.55625152587891	-115.7840881347656	867.394775390625	40.96015930175781	-34.18527221679688	748.8035278320312	33.88539123535156	-13.45178604125977	827.3825073242188	38.71049499511719	185.1969451904297	1036.46484375	534.1127319335938	19.21166801452637	1069.146240234375	812.8274536132812	-23.27131271362305	1011.289306640625	30.02496337890625	146.5801544189453	1045.454956054688	403.87939453125	51.89316558837891	957.8504638671875	35.79866027832031	-87.87191772460938	916.3995361328125	28.98983955383301	-23.67760276794434	1034.495361328125	35.61070251464844	12.21636486053467	961.98828125	31.4830265045166	204.2077026367188	
459	4.58	957.5484008789062	1122.135498046875	112.3240280151367	822.88623046875	1124.785400390625	106.9469146728516	888.3034057617188	1154.873291015625	116.6853103637695	898.7124633789062	1358.082885742188	-91.57836151123047	886.8013305664062	1302.14453125	158.5394592285156	870.6138916015625	1596.786010742188	135.8629608154297	889.6016235351562	1491.107421875	-50.56750106811523	956.9853515625	1411.149658203125	188.9309692382812	769.2149658203125	1572.9560546875	134.1943054199219	705.364013671875	1560.844604492188	42.45814514160156	632.5262451171875	1429.48876953125	56.53902435302734	607.6301879882812	1212.237060546875	33.98292922973633	662.8934936523438	1195.03564453125	102.3921508789062	653.1207275390625	963.7553100585938	-85.38093566894531	624.1668701171875	931.3291625976562	-7.915411949157715	602.7460327148438	1097.580688476562	8.350664138793945	670.4448852539062	772.7340698242188	-117.4383773803711	623.6021728515625	859.4613037109375	-44.20847702026367	641.9042358398438	877.32177734375	-108.4914398193359	1053.545043945312	1582.757446289062	88.72904968261719	1116.430053710938	1509.918579101562	109.4192504882812	1140.231079101562	1215.656127929688	115.2708282470703	1043.07666015625	1212.544799804688	113.1795425415039	1145.126831054688	974.5030517578125	-32.86744689941406	1170.972778320312	958.311767578125	44.78683090209961	1159.427978515625	1143.447021484375	91.88184356689453	1131.717529296875	777.5259399414062	-55.55644989013672	1153.376220703125	865.1500244140625	-59.72000503540039	1178.481079101562	858.8660278320312	8.440990447998047	955.64501953125	1752.66943359375	111.3022232055664	801.1566772460938	1853.468994140625	-10.44824695587158	930.4844360351562	1864.63525390625	-25.13944053649902	823.9554443359375	1742.972900390625	135.3838806152344	719.8867797851562	1040.135620117188	7.954325675964355	1081.307495117188	1026.940551757812	-11.69595813751221	1032.935791015625	1100.61962890625	-92.96388244628906	766.2528076171875	1101.876708984375	-97.92610168457031	757.3370971679688	532.8738403320312	-14.68313694000244	726.1151123046875	680.41552734375	4.973508358001709	769.4857788085938	35.11117553710938	112.3358459472656	731.6100463867188	289.0990600585938	92.09483337402344	836.7174072265625	34.5875129699707	-115.7279052734375	867.3773193359375	40.97208023071289	-34.15621948242188	748.786376953125	33.87115478515625	-13.4395923614502	827.3365478515625	38.62014389038086	185.2215118408203	1036.039672851562	534.0169067382812	18.93766975402832	1068.575805664062	812.692138671875	-23.90151786804199	1011.171081542969	30.06216430664062	146.6133422851562	1045.090209960938	403.8613891601562	51.77405166625977	957.839111328125	35.81560134887695	-87.89076232910156	916.4146118164062	29.0123119354248	-23.72869682312012	1034.4443359375	35.59833145141602	12.22437763214111	961.8568725585938	31.43120574951172	204.2636871337891	
460	4.59	956.8197021484375	1122.15966796875	111.1363296508789	822.1008911132812	1124.800048828125	105.5957336425781	887.5128784179688	1154.885375976562	115.3140869140625	898.47705078125	1357.81005859375	-92.69938659667969	885.888427734375	1301.77294921875	157.5608367919922	870.1782836914062	1596.483276367188	134.9232482910156	889.4851684570312	1490.815795898438	-51.5614128112793	956.1021118164062	1410.697265625	188.0871887207031	768.707275390625	1572.791870117188	132.9929962158203	705.0861206054688	1560.818969726562	41.10026550292969	632.0089111328125	1429.471557617188	54.60836410522461	606.7778930664062	1212.376708984375	30.4924259185791	661.8394775390625	1194.5771484375	98.91466522216797	652.0317993164062	964.7731323242188	-90.68247222900391	622.8963012695312	931.7899169921875	-13.55110549926758	601.6790771484375	1097.929809570312	3.947134733200073	668.8372802734375	774.0914306640625	-124.466423034668	622.1734619140625	860.2735595703125	-50.50067138671875	640.5742797851562	878.6571655273438	-114.576530456543	1053.148559570312	1582.171997070312	88.2093505859375	1115.903198242188	1509.303833007812	109.1317291259766	1139.841674804688	1215.269165039062	115.7634506225586	1042.758178710938	1212.096557617188	113.6967544555664	1144.77099609375	972.6644897460938	-29.91309547424316	1170.64794921875	957.3904418945312	47.94078826904297	1159.044189453125	1142.957641601562	92.97296905517578	1131.753173828125	775.7142333984375	-50.43185424804688	1153.227416992188	863.2203369140625	-55.6395378112793	1178.275756835938	857.5307006835938	12.77484226226807	955.5476684570312	1752.579833984375	110.0840377807617	801.0639038085938	1853.141479492188	-11.82253074645996	930.3757934570312	1864.347045898438	-26.52309226989746	823.8864135742188	1742.890258789062	134.1858215332031	719.3858642578125	1040.042724609375	6.768727779388428	1080.700439453125	1026.857177734375	-12.722243309021	1032.428588867188	1100.362670898438	-94.10789489746094	765.705322265625	1101.622192382812	-99.36800384521484	756.7684326171875	532.7982788085938	-13.11111354827881	725.37744140625	680.394775390625	5.697549819946289	769.4542236328125	35.05561065673828	112.3568420410156	731.1763916015625	289.0907897949219	93.16183471679688	836.689453125	34.63043594360352	-115.6570587158203	867.3463745117188	40.99508285522461	-34.12138366699219	748.756103515625	33.85236358642578	-13.42923069000244	827.2733154296875	38.53330993652344	185.2476196289062	1035.65087890625	533.9597778320312	18.66896820068359	1068.042358398438	812.5865478515625	-24.47148323059082	1011.083557128906	30.11147880554199	146.6317749023438	1044.765502929688	403.8624877929688	51.66887283325195	957.8300170898438	35.83197784423828	-87.90867614746094	916.4257202148438	29.02781105041504	-23.7529239654541	1034.408935546875	35.58965301513672	12.22819137573242	961.7633666992188	31.41122245788574	204.3026275634766	
461	4.600000000000001	956.0799560546875	1122.24267578125	109.9632568359375	821.3242797851562	1124.861938476562	104.2788467407227	886.7297973632812	1154.967407226562	113.9687423706055	898.243408203125	1357.601806640625	-93.79133605957031	884.9521484375	1301.42333984375	156.5858154296875	869.732177734375	1596.209716796875	134.0756530761719	889.3766479492188	1490.576782226562	-52.50064086914062	955.2152099609375	1410.254150390625	187.2662658691406	768.1881713867188	1572.655029296875	131.8594360351562	704.807373046875	1560.85693359375	39.82181549072266	631.514404296875	1429.515625	52.72721481323242	606.0259399414062	1212.587036132812	27.08134841918945	660.9158935546875	1194.206665039062	95.49968719482422	651.0305786132812	965.829833984375	-95.82673645019531	621.7579345703125	932.3233642578125	-18.99923324584961	600.7200927734375	1098.34716796875	-0.3339790999889374	667.3345947265625	775.4721069335938	-131.2296447753906	620.85693359375	861.138427734375	-56.55997848510742	639.3282470703125	880.0012817382812	-120.4543380737305	1052.732177734375	1581.631225585938	87.80449676513672	1115.361450195312	1508.740478515625	108.9509353637695	1139.41650390625	1214.929565429688	116.3477630615234	1042.385498046875	1211.705810546875	114.2574234008789	1144.463500976562	971.017333984375	-27.06491279602051	1170.298583984375	956.5838623046875	50.98698806762695	1158.63623046875	1142.529907226562	94.11714935302734	1131.866577148438	774.2298583984375	-45.6633186340332	1153.15380859375	861.57666015625	-51.78665161132812	1178.060668945312	856.3522338867188	16.90945434570312	955.4676513671875	1752.579223632812	108.9392471313477	800.9998779296875	1852.853637695312	-13.16949462890625	930.2864379882812	1864.08349609375	-27.88173675537109	823.8317260742188	1742.914184570312	133.0638732910156	718.8709106445312	1039.940673828125	5.579806804656982	1080.059326171875	1026.793823242188	-13.67376136779785	1031.875732421875	1100.119506835938	-95.19091796875	765.1551513671875	1101.374877929688	-100.7420349121094	756.1768798828125	532.7325439453125	-11.61155605316162	724.6060791015625	680.384033203125	6.430184364318848	769.4158325195312	35.00382232666016	112.3790817260742	730.734619140625	289.0960083007812	94.19274139404297	836.6581420898438	34.68244171142578	-115.5754776000977	867.3056030273438	41.02755737304688	-34.08269119262695	748.7155151367188	33.82888031005859	-13.4184045791626	827.1971435546875	38.45037841796875	185.2747344970703	1035.301025390625	533.9349975585938	18.39866256713867	1067.554443359375	812.508056640625	-24.98971748352051	1011.024658203125	30.16531944274902	146.638916015625	1044.4755859375	403.8724975585938	51.56967163085938	957.824951171875	35.84685897827148	-87.92335510253906	916.43505859375	29.03882598876953	-23.75212860107422	1034.389770507812	35.58352279663086	12.22877883911133	961.7064819335938	31.41801261901855	204.3278198242188	
